Coordinates
version=1
nRows=37
nColumns=38
inDegrees=no

Units are S.I. units (second, meters, Newtons, ...)
If the header above contains a line with 'inDegrees', this indicates whether rotational values are in degrees (yes) or radians (no).

endheader
time	pelvis_tilt	pelvis_list	pelvis_rotation	pelvis_tx	pelvis_ty	pelvis_tz	hip_flexion_r	hip_adduction_r	hip_rotation_r	knee_angle_r	ankle_angle_r	subtalar_angle_r	mtp_angle_r	hip_flexion_l	hip_adduction_l	hip_rotation_l	knee_angle_l	ankle_angle_l	subtalar_angle_l	mtp_angle_l	lumbar_extension	lumbar_bending	lumbar_rotation	arm_flex_r	arm_add_r	arm_rot_r	elbow_flex_r	pro_sup_r	wrist_flex_r	wrist_dev_r	arm_flex_l	arm_add_l	arm_rot_l	elbow_flex_l	pro_sup_l	wrist_flex_l	wrist_dev_l
0	1.52403	1.43474	0.191669	0.691035	-0.401621	0.932382	0.436334	0.0413631	-0.351945	0.463344	0.0826836	0	0	0.137892	-0.177733	-0.0275064	1.22651	-0.0545778	0	0	-0.0333978	0.117717	-0.23982	-0.144933	-0.166322	-0.16274	0.347584	1.41774	0	0	-0.319271	-0.479615	0.491808	0.912428	0.899096	0	0
0.01	1.51184	1.43738	0.194688	0.692417	-0.390503	0.933866	0.424965	0.0467997	-0.342495	0.461109	0.0807268	0	0	0.168984	-0.17402	-0.0247467	1.27595	-0.0166824	0	0	-0.034544	0.114992	-0.231084	-0.137807	-0.163671	-0.181693	0.338001	1.45815	0	0	-0.314975	-0.483188	0.506116	0.91081	0.899821	0	0
0.02	1.51242	1.44179	0.184445	0.693593	-0.379046	0.935816	0.410689	0.0509608	-0.330068	0.45867	0.0814104	0	0	0.195353	-0.168364	-0.0243695	1.31754	0.0192812	0	0	-0.0380251	0.11119	-0.222034	-0.131722	-0.161769	-0.194114	0.330058	1.48296	0	0	-0.311544	-0.484621	0.515193	0.90757	0.90539	0	0
0.03	1.51626	1.4474	0.170268	0.694726	-0.367621	0.937992	0.395479	0.0542031	-0.314233	0.456098	0.0844619	0	0	0.2203	-0.161183	-0.0253899	1.35325	0.0518393	0	0	-0.0425437	0.106566	-0.211698	-0.126776	-0.159905	-0.20496	0.325652	1.49949	0	0	-0.307893	-0.485153	0.521239	0.904128	0.91503	0	0
0.04	1.52219	1.45332	0.154627	0.69566	-0.356284	0.94031	0.378616	0.0567775	-0.297875	0.451405	0.0894048	0	0	0.245317	-0.152925	-0.025397	1.38336	0.0801553	0	0	-0.0471399	0.101899	-0.201172	-0.122682	-0.15842	-0.2112	0.320815	1.50926	0	0	-0.303622	-0.485568	0.526536	0.901276	0.923521	0	0
0.05	1.52894	1.45918	0.140227	0.69636	-0.34515	0.942699	0.360428	0.0580443	-0.28428	0.444491	0.0944397	0	0	0.271317	-0.143282	-0.0222512	1.40794	0.101973	0	0	-0.0514458	0.0976121	-0.192244	-0.118407	-0.156954	-0.216231	0.314007	1.51851	0	0	-0.299053	-0.485849	0.53067	0.899401	0.932026	0	0
0.06	1.53761	1.46432	0.126305	0.696843	-0.334083	0.945062	0.34067	0.058655	-0.27499	0.434836	0.098985	0	0	0.298407	-0.133471	-0.0161098	1.42768	0.116193	0	0	-0.0551639	0.0943089	-0.185899	-0.116406	-0.157865	-0.195775	0.310096	1.49094	0	0	-0.295772	-0.485163	0.529886	0.898728	0.94829	0	0
0.07	1.54532	1.46839	0.114985	0.697145	-0.323055	0.947284	0.319751	0.0597832	-0.268489	0.422095	0.10289	0	0	0.326589	-0.124263	-0.00805799	1.44263	0.124687	0	0	-0.0585018	0.0924438	-0.179955	-0.115396	-0.158168	-0.183696	0.30707	1.47334	0	0	-0.291823	-0.485363	0.531224	0.899843	0.951071	0	0
0.08	1.54377	1.47202	0.114309	0.697377	-0.312145	0.949255	0.299565	0.060756	-0.263727	0.408514	0.106552	0	0	0.356183	-0.114942	0.00120037	1.45266	0.130233	0	0	-0.0606457	0.0909803	-0.174407	-0.116636	-0.158702	-0.170353	0.306909	1.453	0	0	-0.287614	-0.485764	0.531205	0.902581	0.952937	0	0
0.09	1.53243	1.47612	0.123578	0.697573	-0.301288	0.950984	0.280925	0.0608189	-0.258662	0.39605	0.110643	0	0	0.386015	-0.104895	0.0101522	1.45715	0.133191	0	0	-0.0620382	0.0888859	-0.168148	-0.116759	-0.157116	-0.178342	0.303494	1.46031	0	0	-0.282941	-0.486568	0.531029	0.906175	0.953181	0	0
0.1	1.52643	1.48104	0.127159	0.697802	-0.290444	0.952631	0.261943	0.0600104	-0.252428	0.383933	0.114592	0	0	0.41378	-0.0945634	0.0174801	1.4559	0.134552	0	0	-0.0644103	0.0859232	-0.161375	-0.117411	-0.155461	-0.186612	0.301196	1.46604	0	0	-0.27827	-0.487314	0.529655	0.909702	0.953035	0	0
0.11	1.53352	1.48702	0.11675	0.698118	-0.279533	0.954237	0.241733	0.0583542	-0.245665	0.372095	0.118307	0	0	0.438117	-0.0845654	0.0220836	1.449	0.136331	0	0	-0.0683069	0.0816435	-0.153522	-0.11867	-0.153561	-0.195109	0.299686	1.4708	0	0	-0.27426	-0.48834	0.526269	0.913347	0.953379	0	0
0.12	1.558	1.49391	0.0877836	0.698537	-0.268603	0.955785	0.22039	0.0558921	-0.238091	0.360585	0.121537	0	0	0.459097	-0.0754202	0.0239232	1.437	0.138625	0	0	-0.0740482	0.075985	-0.1447	-0.119993	-0.151367	-0.203476	0.298761	1.47503	0	0	-0.270778	-0.489293	0.519985	0.917551	0.954987	0	0
0.13	1.60257	1.50168	0.0372839	0.699117	-0.2577	0.957263	0.198992	0.0520747	-0.229855	0.351016	0.124985	0	0	0.476993	-0.0671979	0.0226893	1.42023	0.140799	0	0	-0.0814071	0.0688723	-0.135132	-0.120893	-0.149077	-0.210764	0.298431	1.4792	0	0	-0.267896	-0.489752	0.510743	0.921988	0.957455	0	0
0.14	1.6598	1.50742	-0.0277312	0.698682	-0.246883	0.958505	0.178806	0.0491653	-0.220189	0.343802	0.128552	0	0	0.490824	-0.0472102	0.0128253	1.39998	0.132978	0	0	-0.0892599	0.065228	-0.124111	-0.121076	-0.148686	-0.217209	0.298637	1.48256	0	0	-0.264262	-0.488411	0.502315	0.925523	0.959687	0	0
0.15	1.78324	1.51442	-0.160395	0.699625	-0.235966	0.959976	0.153019	0.0454441	-0.208576	0.331623	0.13127	0	0	0.50157	-0.0444541	0.00597267	1.37511	0.135486	0	0	-0.100344	0.0571838	-0.113025	-0.125975	-0.150073	-0.18842	0.3106	1.43835	0	0	-0.262449	-0.487252	0.488371	0.927451	0.969384	0	0
0.16	1.89609	1.52012	-0.281656	0.700572	-0.225014	0.961059	0.130357	0.0416335	-0.199742	0.321131	0.134999	0	0	0.51353	-0.0433021	-0.00156308	1.34815	0.139826	0	0	-0.108777	0.0496151	-0.102876	-0.125229	-0.148272	-0.195128	0.309509	1.44525	0	0	-0.259489	-0.487362	0.480755	0.929128	0.967554	0	0
0.17	2.09479	1.52264	-0.490105	0.701782	-0.213928	0.962314	0.102342	0.0391942	-0.187918	0.307345	0.137323	0	0	0.519351	-0.0471233	-0.0149527	1.31781	0.14518	0	0	-0.121481	0.0424353	-0.0915458	-0.120315	-0.14378	-0.228954	0.301324	1.48477	0	0	-0.256044	-0.487177	0.472771	0.929973	0.954705	0	0
0.18	2.22505	1.52384	-0.628893	0.702907	-0.202757	0.963001	0.0793496	0.0372966	-0.18063	0.297059	0.142451	0	0	0.528566	-0.0588195	-0.0366033	1.28714	0.150908	0	0	-0.129276	0.037073	-0.0828143	-0.122372	-0.144539	-0.214397	0.305668	1.4637	0	0	-0.254223	-0.486662	0.465605	0.928031	0.959529	0	0
0.19	2.34994	1.52536	-0.760523	0.703801	-0.191862	0.963519	0.0576547	0.034137	-0.174101	0.286349	0.146936	0	0	0.536794	-0.0605128	-0.0473133	1.25234	0.157274	0	0	-0.136458	0.0311911	-0.0762275	-0.120843	-0.14344	-0.220276	0.30405	1.47145	0	0	-0.251321	-0.486219	0.460161	0.925436	0.954086	0	0
0.2	2.46976	1.52582	-0.885632	0.704603	-0.180936	0.963886	0.0353034	0.0313593	-0.169228	0.273921	0.150841	0	0	0.543296	-0.0623676	-0.0587044	1.21436	0.163821	0	0	-0.14333	0.0258256	-0.071601	-0.119003	-0.142229	-0.226169	0.302086	1.48224	0	0	-0.247891	-0.485558	0.455702	0.921543	0.947464	0	0
0.21	2.59804	1.52387	-1.01824	0.705374	-0.169906	0.964244	0.0101923	0.0293729	-0.164434	0.259931	0.153912	0	0	0.545688	-0.0649675	-0.071775	1.17296	0.17143	0	0	-0.151835	0.0208618	-0.0685074	-0.11875	-0.142313	-0.216159	0.304156	1.46961	0	0	-0.244048	-0.485477	0.453443	0.917253	0.931357	0	0
0.22	2.7325	1.5231	-1.15273	0.707017	-0.158772	0.964369	-0.0129073	0.0274079	-0.159991	0.248934	0.157641	0	0	0.548618	-0.0797185	-0.0870143	1.12896	0.187718	0	0	-0.158128	0.0126015	-0.0686851	-0.119016	-0.139686	-0.213029	0.304756	1.465	0	0	-0.23991	-0.486746	0.45059	0.911254	0.927299	0	0
0.23	2.76064	1.52213	-1.18632	0.70665	-0.147545	0.963933	-0.0329107	0.0258645	-0.157879	0.237947	0.163727	0	0	0.551153	-0.070348	-0.102086	1.08332	0.186824	0	0	-0.162024	0.0118617	-0.0657953	-0.118224	-0.140989	-0.209169	0.305981	1.4598	0	0	-0.23724	-0.484881	0.449286	0.905851	0.924391	0	0
0.24	2.89137	1.5183	-1.31505	0.708303	-0.136004	0.963959	-0.0606021	0.0250485	-0.151978	0.223366	0.166688	0	0	0.546525	-0.0857031	-0.124284	1.03186	0.202633	0	0	-0.170252	0.00344508	-0.0668275	-0.112332	-0.133008	-0.256273	0.293305	1.51982	0	0	-0.231003	-0.488187	0.452807	0.898581	0.916282	0	0
0.25	2.9553	1.5157	-1.37999	0.708837	-0.12439	0.96347	-0.0848476	0.0238339	-0.148837	0.210011	0.171674	0	0	0.542543	-0.0875374	-0.145991	0.978054	0.208063	0	0	-0.175462	-0.00101423	-0.0668236	-0.112485	-0.131681	-0.254239	0.293011	1.51649	0	0	-0.226701	-0.4892	0.455141	0.891193	0.914601	0	0
0.26	3.01621	1.51345	-1.44175	0.709339	-0.112706	0.96274	-0.108587	0.0220746	-0.146482	0.197088	0.177344	0	0	0.537136	-0.0881053	-0.170329	0.921052	0.21167	0	0	-0.179778	-0.00591004	-0.067164	-0.112742	-0.130281	-0.25129	0.292362	1.51231	0	0	-0.223353	-0.490585	0.457421	0.884721	0.91322	0	0
0.27	3.07208	1.51153	-1.49887	0.709778	-0.100818	0.961777	-0.131019	0.0198506	-0.145755	0.185942	0.184718	0	0	0.530324	-0.0877806	-0.197801	0.860987	0.213414	0	0	-0.183106	-0.0109908	-0.0670636	-0.113227	-0.129056	-0.247236	0.291564	1.50773	0	0	-0.220838	-0.492345	0.460526	0.878266	0.912216	0	0
0.28	3.11918	1.51005	-1.54782	0.710159	-0.088859	0.960615	-0.15256	0.01765	-0.145627	0.175631	0.192162	0	0	0.522509	-0.0868193	-0.228411	0.798485	0.213214	0	0	-0.185507	-0.0157884	-0.0662957	-0.114014	-0.128182	-0.242648	0.290553	1.50296	0	0	-0.218209	-0.493833	0.465032	0.870681	0.911344	0	0
0.29	-3.11655	1.51025	-1.59761	0.710437	-0.076737	0.959102	-0.170555	0.0145877	-0.146275	0.168463	0.200624	0	0	0.515438	-0.0842422	-0.261122	0.734397	0.212501	0	0	-0.185674	-0.0206814	-0.0647798	-0.115452	-0.127503	-0.238591	0.289774	1.49743	0	0	-0.215921	-0.495102	0.469865	0.863113	0.910751	0	0
0.3	-3.10579	1.51327	-1.616	0.709953	-0.0647074	0.957058	-0.183383	0.00943848	-0.151172	0.163994	0.212206	0	0	0.513171	-0.0730487	-0.286068	0.671947	0.206062	0	0	-0.182855	-0.0220545	-0.0601482	-0.116277	-0.128967	-0.234878	0.289797	1.49163	0	0	-0.21627	-0.494205	0.47275	0.856862	0.910372	0	0
0.31	-3.02761	1.51493	-1.69711	0.71012	-0.0525103	0.955171	-0.196335	0.00374943	-0.152842	0.163132	0.223091	0	0	0.505037	-0.0676333	-0.322812	0.604634	0.207767	0	0	-0.181372	-0.0285894	-0.05769	-0.115075	-0.125954	-0.255165	0.283566	1.51104	0	0	-0.214381	-0.495489	0.477769	0.850101	0.906738	0	0
0.32	-2.95592	1.52007	-1.76964	0.709947	-0.0403382	0.952824	-0.203378	-0.000625285	-0.156518	0.166187	0.23464	0	0	0.501	-0.0599983	-0.355762	0.537984	0.211641	0	0	-0.175832	-0.0331609	-0.0577283	-0.117159	-0.125177	-0.253474	0.283221	1.50635	0	0	-0.21429	-0.495272	0.479658	0.842057	0.908284	0	0
0.33	-2.81805	1.52411	-1.90813	0.709563	-0.0281246	0.950424	-0.208282	-0.00853966	-0.162196	0.174095	0.248238	0	0	0.494181	-0.0463706	-0.387346	0.467123	0.215378	0	0	-0.170682	-0.0402931	-0.0582659	-0.118223	-0.123328	-0.258657	0.282048	1.50699	0	0	-0.213897	-0.495375	0.48282	0.833359	0.907232	0	0
0.34	-2.61508	1.5261	-2.11073	0.708883	-0.0157754	0.947992	-0.212889	-0.0193804	-0.171567	0.183897	0.263002	0	0	0.484444	-0.0257299	-0.411555	0.390868	0.217451	0	0	-0.165581	-0.0494929	-0.0599262	-0.119272	-0.121033	-0.264527	0.281551	1.50597	0	0	-0.213498	-0.495067	0.485877	0.823357	0.905354	0	0
0.35	-2.38139	1.52408	-2.34297	0.707847	-0.0032087	0.94562	-0.219074	-0.0330952	-0.184855	0.194133	0.27829	0	0	0.469409	0.0031742	-0.421266	0.305272	0.21349	0	0	-0.16126	-0.0606313	-0.062164	-0.120576	-0.118669	-0.27085	0.280718	1.50315	0	0	-0.21301	-0.494365	0.488543	0.812888	0.902162	0	0
0.36	-2.17667	1.5191	-2.54631	0.706616	0.00952634	0.943235	-0.224034	-0.0483077	-0.198912	0.208114	0.293841	0	0	0.449011	0.0373202	-0.409925	0.210397	0.200716	0	0	-0.157315	-0.0722646	-0.0638537	-0.121878	-0.116877	-0.277098	0.278809	1.49985	0	0	-0.213045	-0.493554	0.490757	0.802826	0.897298	0	0
